<?xml version="1.0" encoding="iso-8859-1"?>
<!-- Generator: Adobe Illustrator 19.0.0, SVG Export Plug-In . SVG Version: 6.00 Build 0)  -->
<svg version="1.1" id="Capa_1" xmlns="http://www.w3.org/2000/svg" xmlns:xlink="http://www.w3.org/1999/xlink" x="0px" y="0px"
	 viewBox="0 0 430.4 430.4" style="enable-background:new 0 0 430.4 430.4;" xml:space="preserve">
<circle style="fill:#63BEE7;" cx="215.2" cy="215.2" r="215.2"/>
<path style="fill:#EFE4D0;" d="M300.4,311.6c0,18.8-15.2,33.6-33.6,33.6H164c-18.8,0-33.6-15.2-33.6-33.6V134.8
	c0-18.8,15.2-33.6,33.6-33.6h102.4c18.8,0,33.6,15.2,33.6,33.6v176.8H300.4z"/>
<path style="fill:#FEF6E4;" d="M130.4,134.8v176.8c0,18.8,15.2,33.6,33.6,33.6h89.6c0.4-2,0.4-4,0.4-6.4V107.6c0-2-0.4-4.4-0.4-6.4
	H164C145.2,101.2,130.4,116.4,130.4,134.8z"/>
<path style="fill:#EFE4D0;" d="M164,101.2c-5.6,0-11.2,1.6-16,4c0.4,11.6,8.8,20.4,18.8,20.4H254v-18.4c0-2-0.4-4.4-0.4-6.4H164
	V101.2z"/>
<path style="fill:#404036;" d="M273.6,101.2c0,9.2-7.2,16.4-16.4,16.4h-84c-9.2,0-16.4-7.2-16.4-16.4l0,0c0-9.2,7.2-16.4,16.4-16.4
	h83.6C266,84.8,273.6,92,273.6,101.2L273.6,101.2z"/>
<g>
	<path style="fill:#5D564F;" d="M277.6,162.4h-82.4c-2.4,0-4-1.6-4-4s1.6-4,4-4h82.4c2.4,0,4,1.6,4,4S279.6,162.4,277.6,162.4z"/>
	<path style="fill:#5D564F;" d="M277.6,194h-82.4c-2.4,0-4-1.6-4-4s1.6-4,4-4h82.4c2.4,0,4,1.6,4,4S279.6,194,277.6,194z"/>
	<path style="fill:#5D564F;" d="M277.6,227.2h-82.4c-2.4,0-4-1.6-4-4s1.6-4,4-4h82.4c2.4,0,4,1.6,4,4S279.6,227.2,277.6,227.2z"/>
</g>
<g>
	<path style="fill:#EB5151;" d="M158,172l-14-12.8c-1.6-1.6-1.6-4-0.4-5.6c1.6-1.6,4-1.6,5.6-0.4l8,7.2l14-14.8c1.6-1.6,4-1.6,5.6,0
		s1.6,4,0,5.6L158,172z"/>
	<path style="fill:#EB5151;" d="M158,202l-14-12.8c-1.6-1.6-1.6-4-0.4-5.6c1.6-1.6,4-1.6,5.6-0.4l8,7.2l14-14.8c1.6-1.6,4-1.6,5.6,0
		s1.6,4,0,5.6L158,202z"/>
	<path style="fill:#EB5151;" d="M158,233.2l-14-12.8c-1.6-1.6-1.6-4-0.4-5.6c1.6-1.6,4-1.6,5.6-0.4l8,7.2l14-14.8
		c1.6-1.6,4-1.6,5.6,0s1.6,4,0,5.6L158,233.2z"/>
</g>
<path style="fill:#60574D;" d="M173.2,117.6h83.6c9.2,0,16.4-7.2,16.4-16.4H156.8C156.8,110.4,164.4,117.6,173.2,117.6z"/>
<g>
</g>
<g>
</g>
<g>
</g>
<g>
</g>
<g>
</g>
<g>
</g>
<g>
</g>
<g>
</g>
<g>
</g>
<g>
</g>
<g>
</g>
<g>
</g>
<g>
</g>
<g>
</g>
<g>
</g>
</svg>
