<?xml version="1.0" encoding="iso-8859-1"?>
<!-- Generator: Adobe Illustrator 19.0.0, SVG Export Plug-In . SVG Version: 6.00 Build 0)  -->
<svg version="1.1" id="Capa_1" xmlns="http://www.w3.org/2000/svg" xmlns:xlink="http://www.w3.org/1999/xlink" x="0px" y="0px"
	 viewBox="0 0 430.4 430.4" style="enable-background:new 0 0 430.4 430.4;" xml:space="preserve">
<circle style="fill:#9DCA5B;" cx="215.2" cy="215.2" r="215.2"/>
<path style="fill:#FFED33;" d="M216.4,268.4L163.6,216c-2-2-2-4.8,0-6.8s4.8-2,6.8,0l52.8,52.4c2,2,2,4.8,0,6.8
	C221.2,270.4,218.4,270.4,216.4,268.4z"/>
<path style="fill:#EB5151;" d="M206.8,297.2l-71.6-71.6c-2.4-2.4-2.4-6.8,0-9.2c2.4-2.4,6.8-2.4,9.2,0L216,288
	c2.4,2.4,2.4,6.8,0,9.2C213.2,299.6,209.2,299.6,206.8,297.2z"/>
<path style="fill:#FFED33;" d="M188.8,318.4L114,243.2c-3.2-3.2-3.2-8.4,0-11.6s8.4-3.2,11.6,0l74.8,74.8c3.2,3.2,3.2,8.4,0,11.6
	C197.2,321.6,192,321.6,188.8,318.4z"/>
<path style="fill:#EB5151;" d="M265.6,219.2l-52.8-52.4c-2-2-2-4.8,0-6.8s4.8-2,6.8,0l52.4,52.4c2,2,2,4.8,0,6.8
	C270.4,221.2,267.2,221.2,265.6,219.2z"/>
<path style="fill:#FFED33;" d="M292,212l-71.6-71.6c-2.4-2.4-2.4-6.8,0-9.2s6.8-2.4,9.2,0l71.6,71.6c2.4,2.4,2.4,6.8,0,9.2
	C298.4,214.4,294.4,214.4,292,212z"/>
<path style="fill:#EB5151;" d="M310.8,196.4l-75.2-74.8c-3.2-3.2-3.2-8.4,0-11.6c3.2-3.2,8.4-3.2,11.6,0l74.8,74.8
	c3.2,3.2,3.2,8.4,0,11.6C319.2,199.6,314,199.6,310.8,196.4z"/>
<path style="fill:#FFF5E4;" d="M228.4,223.2c72,10.8,109.2-29.6,110.8-31.6c2.8-3.2,2.8-8.4-0.8-11.6c-3.2-2.8-8.4-2.8-11.6,0.8
	c-0.4,0.4-34.4,37.6-101.6,25.2c-12-66.4,23.6-100,25.6-101.6c3.2-2.8,3.6-8,0.8-11.6c-2.8-3.2-8-3.6-11.6-0.8
	c-2,1.6-42.4,38.8-31.6,110.8c-22.8-2.4-76-3.2-114,34.4c-3.2,3.2-3.2,8.4,0,11.6s8.4,3.2,11.6,0c35.6-35.6,89.6-31.6,105.2-29.2
	c2,16,6.4,69.6-29.2,105.2c-3.2,3.2-3.2,8.4,0,11.6s8.4,3.2,11.6,0C232,299.2,231.2,246,228.4,223.2z"/>
<g>
</g>
<g>
</g>
<g>
</g>
<g>
</g>
<g>
</g>
<g>
</g>
<g>
</g>
<g>
</g>
<g>
</g>
<g>
</g>
<g>
</g>
<g>
</g>
<g>
</g>
<g>
</g>
<g>
</g>
</svg>
