<?xml version="1.0" encoding="iso-8859-1"?>
<!-- Generator: Adobe Illustrator 19.0.0, SVG Export Plug-In . SVG Version: 6.00 Build 0)  -->
<svg version="1.1" id="Capa_1" xmlns="http://www.w3.org/2000/svg" xmlns:xlink="http://www.w3.org/1999/xlink" x="0px" y="0px"
	 viewBox="0 0 430.4 430.4" style="enable-background:new 0 0 430.4 430.4;" xml:space="preserve">
<circle style="fill:#EB5151;" cx="215.2" cy="215.2" r="215.2"/>
<path style="fill:#FEF5E4;" d="M133.2,302c-6,6-15.2,7.2-20,2.4l0,0c-4.8-4.8-3.6-13.6,2.4-20L276,124c6-6,15.2-7.2,20-2.4l0,0
	c4.8,4.8,3.6,13.6-2.4,20L133.2,302z"/>
<path style="fill:#E2DCD3;" d="M237.6,180.4L113.2,304.8c4.8,4.8,13.6,3.6,20-2.4l113.2-113.2L237.6,180.4z"/>
<path style="fill:#FFEA35;" d="M246.4,202.4l87.2-87.2c8.4-8.8,8.4-22.4,0-31.2c-8.8-8.4-22.4-8.4-31.2,0l-87.2,87.2L246.4,202.4z"
	/>
<path style="fill:#F9CA02;" d="M253.2,209.2c-3.6,3.6-9.6,3.6-13.2,0L208.8,178c-3.6-3.6-3.6-9.6,0-13.2l0,0c3.6-3.6,9.6-3.6,13.2,0
	l31.2,31.2C256.8,199.6,256.8,205.6,253.2,209.2L253.2,209.2z"/>
<path style="fill:#FFEA35;" d="M208.8,178l31.2,31.2c3.6,3.6,9.6,3.6,13.2,0l-44.4-44.4C205.2,168.4,205.2,174.4,208.8,178z"/>
<g>
	<path style="fill:#F9CA02;" d="M246.4,202.4l87.2-87.2c8.4-8.8,8.4-22.4,0-31.2L230.8,186.8L246.4,202.4z"/>
	<path style="fill:#F9CA02;" d="M110,315.6c0,0-13.2,21.2-13.2,25.6c0,7.2,6,13.2,13.2,13.2s13.2-6,13.2-13.2
		C123.2,336.8,110,315.6,110,315.6z"/>
</g>
<g>
</g>
<g>
</g>
<g>
</g>
<g>
</g>
<g>
</g>
<g>
</g>
<g>
</g>
<g>
</g>
<g>
</g>
<g>
</g>
<g>
</g>
<g>
</g>
<g>
</g>
<g>
</g>
<g>
</g>
</svg>
