<?xml version="1.0" encoding="iso-8859-1"?>
<!-- Generator: Adobe Illustrator 19.0.0, SVG Export Plug-In . SVG Version: 6.00 Build 0)  -->
<svg version="1.1" id="Capa_1" xmlns="http://www.w3.org/2000/svg" xmlns:xlink="http://www.w3.org/1999/xlink" x="0px" y="0px"
	 viewBox="0 0 430.4 430.4" style="enable-background:new 0 0 430.4 430.4;" xml:space="preserve">
<circle style="fill:#63BEE7;" cx="215.2" cy="215.2" r="215.2"/>
<path style="fill:#FAC70B;" d="M275.6,217.6c0.4-0.4,0.4-0.4,0.8-0.8l0.4-0.4c0.4-0.4,0.4-0.4,0.4-0.8
	c10.8-13.6,17.6-30.8,17.6-49.6c0-44-35.6-79.6-79.6-79.6S135.6,122,135.6,166c0,20,7.2,38,19.2,52l0,0c0,0,24.8,27.6,24.8,64h72
	c0,0,2.8-40.4,21.6-62c0.4-0.4,0.4-0.4,0.8-0.8C274.4,218.8,275.2,218,275.6,217.6z"/>
<path style="fill:#FEEC32;" d="M241.6,219.2c0.4-0.4,0.8-1.2,1.6-1.6c0.4-0.4,0.4-0.4,0.8-0.8l0.4-0.4c0.4-0.4,0.4-0.4,0.4-0.8
	c10.8-13.6,17.6-30.8,17.6-49.6c0-38.4-27.2-70.4-63.2-78c-36,7.6-63.2,39.6-63.2,78c0,20,7.2,38,19.2,52l0,0c0,0,24.8,27.6,24.8,64
	h39.6c0,0,2.8-40.4,21.6-62C241.2,219.6,241.6,219.6,241.6,219.2z"/>
<path style="fill:#404036;" d="M192.8,286.4v35.2c0,12.4,10,22.4,22.4,22.4s22.4-10,22.4-22.4v-35.2H192.8z"/>
<path style="fill:#60574D;" d="M192.8,321.6c0,10.4,6.8,18.8,16.4,21.6c4-4,6.4-9.6,6.4-15.6v-35.2h-22.4v29.2H192.8z"/>
<g>
	<path style="fill:#FEF5E4;" d="M255.6,282c0,6.8-6.4,12-14,12h-52.4c-7.6,0-14-5.2-14-12l0,0c0-6.8,6.4-12,14-12h52.4
		C249.2,270,255.6,275.2,255.6,282L255.6,282z"/>
	<path style="fill:#FEF5E4;" d="M255.6,309.6c0,6.8-6.4,12-14,12h-52.4c-7.6,0-14-5.2-14-12l0,0c0-6.8,6.4-12,14-12h52.4
		C249.2,297.6,255.6,303.2,255.6,309.6L255.6,309.6z"/>
</g>
<g>
	<path style="fill:#E2DCD3;" d="M189.2,294h52.4c7.6,0,14-5.2,14-12h-80.8C174.8,288.4,181.2,294,189.2,294z"/>
	<path style="fill:#E2DCD3;" d="M189.2,321.2h52.4c7.6,0,14-5.2,14-12h-80.8C174.8,316,181.2,321.2,189.2,321.2z"/>
</g>
<g>
</g>
<g>
</g>
<g>
</g>
<g>
</g>
<g>
</g>
<g>
</g>
<g>
</g>
<g>
</g>
<g>
</g>
<g>
</g>
<g>
</g>
<g>
</g>
<g>
</g>
<g>
</g>
<g>
</g>
</svg>
