<?xml version="1.0" encoding="iso-8859-1"?>
<!-- Generator: Adobe Illustrator 19.0.0, SVG Export Plug-In . SVG Version: 6.00 Build 0)  -->
<svg version="1.1" id="Capa_1" xmlns="http://www.w3.org/2000/svg" xmlns:xlink="http://www.w3.org/1999/xlink" x="0px" y="0px"
	 viewBox="0 0 430.4 430.4" style="enable-background:new 0 0 430.4 430.4;" xml:space="preserve">
<circle style="fill:#63BEE7;" cx="215.2" cy="215.2" r="215.2"/>
<path style="fill:#FFF5E4;" d="M281.6,273.2c17.6-25.2,20.4-57.6,8-91.2l-19.6,7.2c12.8,34.4,4,58-5.6,72
	c-12.4,18-34.4,29.6-55.6,29.6c-38.8,0-61.6-39.2-61.6-39.6l-18,10c0.8,1.6,18.8,33.2,52.4,45.2v27.2H146c-3.6,0-6.8,2.8-6.8,6.8
	c0,3.6,2.8,6.8,6.8,6.8h123.2c3.6,0,6.4-2.8,6.4-6.8c0-3.6-2.8-6.8-6.4-6.8h-35.6v-26C252.8,302,270,290,281.6,273.2z"/>
<path style="fill:#60574D;" d="M182.4,256.4c0,5.2-3.6,9.6-7.6,9.6h-62.4c-4.4,0-7.6-4.4-7.6-9.6l0,0c0-5.2,3.6-9.6,7.6-9.6h62.4
	C178.8,246.8,182.4,251.2,182.4,256.4L182.4,256.4z"/>
<path style="fill:#FAF3DF;" d="M166.4,192.4l35.2,35.2l0.4,0.4c1.6-0.8,2.8-1.6,4-2.8l95.2-95.2c-2-1.2-4-2.4-5.6-4.4L266,96
	c-0.8-0.8-2-2-2.8-3.2L168.8,188c-1.2,1.2-2,2.8-2.8,4C166,192,166,192,166.4,192.4z"/>
<path style="fill:#565348;" d="M156.4,193.6c3.2-3.2,7.6-3.6,10-1.2l35.2,35.2c2.4,2.4,2,6.8-1.2,10l0,0c-3.2,3.2-7.6,3.6-10,1.2
	l-35.2-35.6C152.8,200.8,153.6,196.4,156.4,193.6L156.4,193.6z"/>
<path style="fill:#ECE6CF;" d="M166.4,192.4L184,210l98-98l-15.6-15.6c-0.8-0.8-2-2-2.8-3.2L168.8,188c-1.2,1.2-2,2.8-2.8,4
	C166,192,166,192,166.4,192.4z"/>
<path style="fill:#8C8981;" d="M290.8,140.4l10-10c-2-1.2-4-2.4-5.6-4.4l-29.6-29.6c-0.8-0.8-2-2-2.8-3.2l-9.2,10L290.8,140.4z"/>
<path style="fill:#60574D;" d="M258,100.8l35.2,35.2c2.4,2.4,6.8,2,10-1.2s3.6-7.6,1.2-10l-5.2-5.2c0.4-0.4,0.4-0.4,0.8-0.8
	L322.8,96c1.6-1.6,2.8-3.6,3.2-5.6L303.2,68c-2,0.8-4,1.6-5.6,3.2L275.2,94c-0.4,0.4-0.4,0.4-0.8,0.8l-5.2-5.2
	c-2.4-2.4-6.8-2-10,1.2C256,93.6,255.6,98.4,258,100.8z"/>
<g>
	<path style="fill:#404036;" d="M155.2,203.2l17.6,17.6l11.2-11.2L166.4,192c-2.4-2.4-6.8-2-10,1.2
		C153.6,196.4,152.8,200.8,155.2,203.2z"/>
	<path style="fill:#404036;" d="M258,100.8l17.6,17.6l38.8-38.8L303.2,68c-2,0.8-4,1.6-5.6,3.2L275.2,94c-0.4,0.4-0.4,0.4-0.8,0.8
		l-5.2-5.2c-2.4-2.4-6.8-2-10,1.2C256,93.6,255.6,98.4,258,100.8z"/>
</g>
<path style="fill:#8C8981;" d="M166.4,192.4l35.2,35.2l0.4,0.4c1.6-0.8,2.8-1.6,4-2.8l0.4-0.4l-37.2-37.2l-0.4,0.4
	c-1.2,1.2-2,2.8-2.8,4C166,192,166,192,166.4,192.4z"/>
<circle style="fill:#60574D;" cx="271.6" cy="170.4" r="25.6"/>
<g>
	<circle style="fill:#404036;" cx="271.6" cy="170.4" r="16"/>
	<path style="fill:#404036;" d="M112.4,266h62.4c4.4,0,7.6-4.4,7.6-9.6h-77.6C104.8,262,108,266,112.4,266z"/>
</g>
<path style="fill:#60574D;" d="M146,347.2h123.2c3.6,0,6.4-2.8,6.4-6.8H139.2C139.2,344,142.4,347.2,146,347.2z"/>
<g>
</g>
<g>
</g>
<g>
</g>
<g>
</g>
<g>
</g>
<g>
</g>
<g>
</g>
<g>
</g>
<g>
</g>
<g>
</g>
<g>
</g>
<g>
</g>
<g>
</g>
<g>
</g>
<g>
</g>
</svg>
