<?xml version="1.0" encoding="iso-8859-1"?>
<!-- Generator: Adobe Illustrator 19.0.0, SVG Export Plug-In . SVG Version: 6.00 Build 0)  -->
<svg version="1.1" id="Capa_1" xmlns="http://www.w3.org/2000/svg" xmlns:xlink="http://www.w3.org/1999/xlink" x="0px" y="0px"
	 viewBox="0 0 430.4 430.4" style="enable-background:new 0 0 430.4 430.4;" xml:space="preserve">
<circle style="fill:#9DCA5B;" cx="215.2" cy="215.2" r="215.2"/>
<path style="fill:#FAF8E4;" d="M217.6,335.6L111.2,274V151.2L217.6,90L324,151.2V274L217.6,335.6z M131.2,262.8l86.4,50l86.4-50
	v-100l-86.4-49.6l-86.4,49.6V262.8z"/>
<circle style="fill:#FFED33;" cx="217.6" cy="109.2" r="32"/>
<path style="fill:#FCC800;" d="M249.6,109.2c0-17.6-14.4-32-32-32c29.6,29.6,0,64,0,64C235.2,141.2,249.6,126.8,249.6,109.2z"/>
<circle style="fill:#EB5151;" cx="215.2" cy="321.2" r="32"/>
<path style="fill:#C84546;" d="M247.2,321.2c0-17.6-14.4-32-32-32c29.6,29.6,0,64,0,64C232.8,353.2,247.2,339.2,247.2,321.2z"/>
<circle style="fill:#EB5151;" cx="118.8" cy="152.8" r="32"/>
<path style="fill:#C84546;" d="M150.8,152.8c0-17.6-14.4-32-32-32c29.6,29.6,0,64,0,64C136.4,184.8,150.8,170.4,150.8,152.8z"/>
<circle style="fill:#FFED33;" cx="118.8" cy="266.8" r="32"/>
<path style="fill:#FCC800;" d="M150.8,266.8c0-17.6-14.4-32-32-32c29.6,29.6,0,64,0,64C136.4,299.2,150.8,284.8,150.8,266.8z"/>
<circle style="fill:#FFED33;" cx="312" cy="266.8" r="32"/>
<path style="fill:#FCC800;" d="M344,266.8c0-17.6-14.4-32-32-32c29.6,29.6,0,64,0,64C329.6,299.2,344,284.8,344,266.8z"/>
<circle style="fill:#EB5151;" cx="312" cy="152.8" r="32"/>
<path style="fill:#C84546;" d="M344,152.8c0-17.6-14.4-32-32-32c29.6,29.6,0,64,0,64C329.6,184.8,344,170.4,344,152.8z"/>
<g>
</g>
<g>
</g>
<g>
</g>
<g>
</g>
<g>
</g>
<g>
</g>
<g>
</g>
<g>
</g>
<g>
</g>
<g>
</g>
<g>
</g>
<g>
</g>
<g>
</g>
<g>
</g>
<g>
</g>
</svg>
