<?xml version="1.0" encoding="iso-8859-1"?>
<!-- Generator: Adobe Illustrator 19.0.0, SVG Export Plug-In . SVG Version: 6.00 Build 0)  -->
<svg version="1.1" id="Capa_1" xmlns="http://www.w3.org/2000/svg" xmlns:xlink="http://www.w3.org/1999/xlink" x="0px" y="0px"
	 viewBox="0 0 430.4 430.4" style="enable-background:new 0 0 430.4 430.4;" xml:space="preserve">
<circle style="fill:#EB5151;" cx="215.2" cy="215.2" r="215.2"/>
<circle style="fill:#FFED33;" cx="217.2" cy="215.2" r="19.2"/>
<path style="fill:#FCC800;" d="M216.8,234.4c10.8,0,19.2-8.8,19.2-19.2c0-10.8-8.8-19.2-19.2-19.2
	C216.8,196,234.8,216.4,216.8,234.4z"/>
<g>
	<path style="fill:#FAF3DF;" d="M217.2,350c-34,0-51.6-67.6-51.6-134.8s17.6-134.8,51.6-134.8s51.6,67.6,51.6,134.8
		S251.2,350,217.2,350z M217.2,97.6c-14,0-34.8,46-34.8,117.6c0,72,20.4,117.6,34.8,117.6c14,0,34.4-45.6,34.4-117.6
		S231.2,97.6,217.2,97.6z"/>
	<path style="fill:#FAF3DF;" d="M134,298c-20,0-28.8-7.6-32.8-14c-17.2-29.2,32-79.2,89.2-113.2c40.4-24,81.6-38.4,109.6-38.4
		c20,0,28.8,7.6,32.8,14c17.2,29.2-32,79.2-89.6,113.2C202.8,283.6,162,298,134,298z M300,149.2c-24.8,0-63.2,14-100.8,36
		c-61.6,36.8-90.4,78-83.2,90c2,3.6,8.8,5.6,18,5.6c24.8,0,63.2-14,100.8-36c61.6-36.4,90.8-77.6,83.6-89.6
		C316,151.6,309.6,149.2,300,149.2z"/>
</g>
<path style="fill:#FFF5E4;" d="M300,298c-28,0-68.8-14.4-109.2-38c-30-17.6-55.6-38-72.8-58c-24.4-28.4-22.8-45.6-17.2-54.8
	c4-6.4,12.8-14.4,33.2-14.4c28,0,68.8,14.4,109.2,38c30,17.6,55.6,38,72.8,58c24.4,28.4,22.8,45.6,17.2,54.8
	C329.2,290,320.4,298,300,298z M134,149.6c-9.6,0-16,2-18.4,6c-2.8,4.8-0.4,16.8,15.6,35.2s40,37.6,68.4,54.4
	c37.2,22,76,35.6,100.8,35.6c9.6,0,16-2,18.4-6c2.8-4.8,0.4-16.8-15.6-35.2s-40-37.6-68.4-54.4C197.2,163.2,158.8,149.6,134,149.6z"
	/>
<circle style="fill:#FFED33;" cx="136.4" cy="142.4" r="19.2"/>
<path style="fill:#FCC800;" d="M136,161.6c10.8,0,19.2-8.8,19.2-19.2c0-10.8-8.8-19.2-19.2-19.2C136,123.2,154,143.6,136,161.6z"/>
<circle style="fill:#FFED33;" cx="317.2" cy="187.6" r="19.2"/>
<path style="fill:#FCC800;" d="M317.2,206.8c10.8,0,19.2-8.8,19.2-19.2c0-10.8-8.8-19.2-19.2-19.2
	C317.2,168.4,335.2,188.8,317.2,206.8z"/>
<g>
</g>
<g>
</g>
<g>
</g>
<g>
</g>
<g>
</g>
<g>
</g>
<g>
</g>
<g>
</g>
<g>
</g>
<g>
</g>
<g>
</g>
<g>
</g>
<g>
</g>
<g>
</g>
<g>
</g>
</svg>
