<?xml version="1.0" encoding="iso-8859-1"?>
<!-- Generator: Adobe Illustrator 19.0.0, SVG Export Plug-In . SVG Version: 6.00 Build 0)  -->
<svg version="1.1" id="Capa_1" xmlns="http://www.w3.org/2000/svg" xmlns:xlink="http://www.w3.org/1999/xlink" x="0px" y="0px"
	 viewBox="0 0 430.4 430.4" style="enable-background:new 0 0 430.4 430.4;" xml:space="preserve">
<circle style="fill:#63BEE7;" cx="215.2" cy="215.2" r="215.2"/>
<g>
	<path style="fill:#FFF5E4;" d="M156.4,286c-3.2,3.2-8.8,3.2-12.4,0l0,0c-3.2-3.2-3.2-8.8,0-12.4l124.8-124.8
		c3.2-3.2,8.8-3.2,12.4,0l0,0c3.2,3.2,3.2,8.8,0,12.4L156.4,286z"/>
	<path style="fill:#FFF5E4;" d="M144.4,161.6c-3.2-3.2-3.2-8.8,0-12.4l0,0c3.2-3.2,8.8-3.2,12.4,0L281.6,274c3.2,3.2,3.2,8.8,0,12.4
		l0,0c-3.6,3.2-8.8,3.2-12.4,0L144.4,161.6z"/>
</g>
<g>
	<circle style="fill:#FFED33;" cx="296.4" cy="134" r="39.6"/>
	<circle style="fill:#FFED33;" cx="134" cy="296.4" r="39.6"/>
	<circle style="fill:#FFED33;" cx="141.6" cy="146.8" r="32"/>
	<circle style="fill:#FFED33;" cx="283.6" cy="288.8" r="32"/>
</g>
<circle style="fill:#EB5151;" cx="212.8" cy="217.6" r="44"/>
<g>
	<path style="fill:#FCC800;" d="M173.6,146.8c0-17.6-14.4-32-32-32c29.6,29.6,0,64,0,64C159.2,178.8,173.6,164.4,173.6,146.8z"/>
	<path style="fill:#FCC800;" d="M315.6,288.8c0-17.6-14.4-32-32-32c29.6,29.6,0,64,0,64C301.6,320.8,315.6,306.4,315.6,288.8z"/>
	<path style="fill:#FCC800;" d="M134,336c22,0,39.6-17.6,39.6-39.6S156,256.8,134,256.8C134,256.8,171.2,298.8,134,336z"/>
</g>
<path style="fill:#C84546;" d="M212.8,261.6c24.4,0,44-19.6,44-44s-19.6-44-44-44C212.8,173.6,252,222.4,212.8,261.6z"/>
<path style="fill:#FCC800;" d="M296,173.6c22,0,39.6-17.6,39.6-39.6S318,94.4,296,94.4C296,94.4,333.2,136.4,296,173.6z"/>
<g>
</g>
<g>
</g>
<g>
</g>
<g>
</g>
<g>
</g>
<g>
</g>
<g>
</g>
<g>
</g>
<g>
</g>
<g>
</g>
<g>
</g>
<g>
</g>
<g>
</g>
<g>
</g>
<g>
</g>
</svg>
