<?xml version="1.0" encoding="iso-8859-1"?>
<!-- Generator: Adobe Illustrator 19.0.0, SVG Export Plug-In . SVG Version: 6.00 Build 0)  -->
<svg version="1.1" id="Capa_1" xmlns="http://www.w3.org/2000/svg" xmlns:xlink="http://www.w3.org/1999/xlink" x="0px" y="0px"
	 viewBox="0 0 430.4 430.4" style="enable-background:new 0 0 430.4 430.4;" xml:space="preserve">
<circle style="fill:#EB5151;" cx="215.2" cy="215.2" r="215.2"/>
<g>
	<path style="fill:#FAF8E4;" d="M298,187.6l-50.4-50.4L131.2,253.6c0,0,0,21.6,4.8,34.4l-41.6,41.2c-3.2,3.2-3.2,8,0,10.8
		c3.2,3.2,8,3.2,10.8,0l41.6-41.6c12.8,4.8,34.8,5.2,34.8,5.2L298,187.6z"/>
	<path style="fill:#FAF8E4;" d="M260,191.6c-5.6,5.6-14,6.8-18.8,2l0,0c-4.4-4.4-3.6-12.8,2-18.8L306,112c5.6-5.6,14-6.8,18.8-2l0,0
		c4.4,4.4,3.6,12.8-2,18.8L260,191.6z"/>
	<path style="fill:#FAF8E4;" d="M288.8,107.6c-4.8-4.8-4.8-12.4-0.4-16.8l0,0c4.4-4.4,12-4.4,16.8,0.4l38.4,38.4
		c4.8,4.8,4.8,12.4,0.4,16.8l0,0c-4.4,4.4-12,4.4-16.8-0.4L288.8,107.6z"/>
</g>
<g>
	
		<rect x="225.914" y="167.804" transform="matrix(0.7071 0.7071 -0.7071 0.7071 199.3518 -134.0709)" style="fill:#EFE4D0;" width="71.199" height="11.6"/>
	<path style="fill:#EFE4D0;" d="M265.2,169.2L94.4,340l0,0c3.2,3.2,8,3.2,10.8,0l41.6-41.6c12.8,4.8,34.8,5.2,34.8,5.2l109.2-109.2
		L265.2,169.2z"/>
</g>
<path style="fill:#FAF8E4;" d="M310,199.6c-5.2,5.2-14,5.2-19.6,0l-55.2-54.8c-5.2-5.2-5.2-14,0-19.6l0,0c5.2-5.2,14-5.2,19.6,0
	l54.8,54.8C315.2,185.6,315.2,194.4,310,199.6L310,199.6z"/>
<path style="fill:#63BEE7;" d="M156.4,284c7.2,2.8,20,2.8,20,2.8l66.8-66.8l-28.8-28.8L147.6,258c0,0,0,12.4,2.8,19.6
	C151.6,283.6,156.4,284,156.4,284z"/>
<path style="fill:#EFE4D0;" d="M288.8,107.6l38.4,38.4c4.8,4.8,12.4,4.8,16.8,0.4l-55.2-55.6C284,95.6,284.4,103.2,288.8,107.6z"/>
<g>
</g>
<g>
</g>
<g>
</g>
<g>
</g>
<g>
</g>
<g>
</g>
<g>
</g>
<g>
</g>
<g>
</g>
<g>
</g>
<g>
</g>
<g>
</g>
<g>
</g>
<g>
</g>
<g>
</g>
</svg>
